Coordinates
version=1
nRows=8
nColumns=63
inDegrees=yes

Units are S.I. units (second, meters, Newtons, ...)
If the header above contains a line with 'inDegrees', this indicates whether rotational values are in degrees (yes) or radians (no).

endheader
time	pelvis_tilt	pelvis_list	pelvis_rotation	pelvis_tx	pelvis_ty	pelvis_tz	hip_flexion_r	hip_adduction_r	hip_rotation_r	knee_angle_r	knee_angle_r_beta	ankle_angle_r	subtalar_angle_r	mtp_angle_r	hip_flexion_l	hip_adduction_l	hip_rotation_l	knee_angle_l	knee_angle_l_beta	ankle_angle_l	subtalar_angle_l	mtp_angle_l	L5_S1_Flex_Ext	L5_S1_Lat_Bending	L5_S1_axial_rotation	L4_L5_Flex_Ext	L4_L5_Lat_Bending	L4_L5_axial_rotation	L3_L4_Flex_Ext	L3_L4_Lat_Bending	L3_L4_axial_rotation	L2_L3_Flex_Ext	L2_L3_Lat_Bending	L2_L3_axial_rotation	L1_L2_Flex_Ext	L1_L2_Lat_Bending	L1_L2_axial_rotation	L1_T12_Flex_Ext	L1_T12_Lat_Bending	L1_T12_axial_rotation	Abs_r3	Abs_r2	Abs_r1	Abs_t1	Abs_t2	neck_flexion	neck_bending	neck_rotation	arm_flex_r	arm_add_r	arm_rot_r	elbow_flex_r	pro_sup_r	wrist_flex_r	wrist_dev_r	arm_flex_l	arm_add_l	arm_rot_l	elbow_flex_l	pro_sup_l	wrist_flex_l	wrist_dev_l
      5.79591837	     -0.94571131	      0.29680753	     80.43341314	      0.46082559	      0.73943282	      0.98970981	     -3.80813566	     -0.02244474	     22.34337917	      2.00842826	      0.03505369	     23.17197846	    -13.23340189	      0.00000000	     -5.64557768	     -0.32078067	    -22.39227680	      5.59032244	      0.09756953	     33.66204094	     12.17104370	      0.00000000	      0.08684120	     -0.02926531	      4.07280506	      0.16127279	     -0.03892286	      4.32735538	      0.14267141	     -0.07115567	      4.32735538	      0.09925081	     -0.07115567	      3.56370443	      0.08064074	     -0.05967782	      3.30915411	      0.04962106	     -0.04533196	      3.05460380	      0.62029801	     -0.33105503	     22.65171991	      0.00000000	      0.00000000	     -1.19073753	      6.47736671	    -18.73243006	    151.95600350	    -39.14712719	     48.80547744	    119.76232437	     36.79651661	    -20.55886028	     34.28842962	    128.79674030	    -13.86798161	     28.74094269	    118.17541031	     71.00139256	     -7.06241108	      6.46160633
      5.81632653	     -0.76902608	      0.12115719	     81.44770441	      0.45959935	      0.73925591	      0.98976851	     -3.75049214	      0.25244286	     21.05114788	      1.91388359	      0.03340357	     23.07573676	    -12.95213323	      0.00000000	     -5.25005877	     -0.74344765	    -22.28396456	      5.90704851	      0.10309745	     34.06256544	     13.32574904	      0.00000000	      0.09936805	     -0.00984843	      3.89740494	      0.18453640	     -0.01309841	      4.14099275	      0.16325176	     -0.02394547	      4.14099275	      0.11356774	     -0.02394547	      3.41022932	      0.09227317	     -0.02008292	      3.16664151	      0.05677890	     -0.01525522	      2.92305370	      0.70977602	     -0.11140740	     21.67619704	      0.00000000	      0.00000000	     -0.55222805	      6.98911084	    -17.75435311	    152.38148221	    -38.63420240	     49.00502742	    121.11666331	     20.77100041	    -33.46733369	     33.99493917	    128.73250085	    -14.19107429	     28.93372893	    118.07033325	     72.22143501	     -7.20171208	      5.64497826
      5.83673469	     -0.59249663	      0.14946252	     81.83288395	      0.45893790	      0.73935583	      0.98985113	     -3.80054874	      0.44752085	     20.26005410	      1.91550761	      0.03343191	     23.14425524	    -12.39549546	      0.00000000	     -5.22587585	     -0.99802589	    -22.35183160	      6.01051886	      0.10490334	     34.26294392	     13.92293694	      0.00000000	      0.10023230	      0.01109071	      3.80503197	      0.18614141	      0.01475064	      4.04284646	      0.16467165	      0.02696595	      4.04284646	      0.11455550	      0.02696595	      3.32940297	      0.09307572	      0.02261617	      3.09158847	      0.05727274	      0.01717951	      2.85377397	      0.71594932	      0.12546032	     21.16244628	      0.00000000	      0.00000000	     -0.55422456	      7.17485160	    -17.52056628	    151.87953325	    -38.60313930	     48.63723842	    121.32103151	     19.42905475	    -34.74687917	     33.91958585	    128.52781201	    -14.28688703	     28.98895362	    117.87666246	     74.36229767	     -7.28428905	      5.41838290
      5.85714286	     -0.48454549	      0.19629181	     82.54775547	      0.45800073	      0.73953606	      0.98965918	     -3.93721283	      0.57970818	     19.01459689	      1.81925872	      0.03175205	     23.33776660	    -11.52825720	      0.00000000	     -5.23333520	     -1.17027722	    -21.64127427	      5.97897766	      0.10435285	     34.24383785	     13.99569465	      0.00000000	      0.11350683	      0.02477520	      3.63166519	      0.21079353	      0.03295101	      3.85864427	      0.18648037	      0.06023841	      3.85864427	      0.12972695	      0.06023841	      3.17770704	      0.10540244	      0.05052158	      2.95072797	      0.06485780	      0.03837678	      2.72374889	      0.81076792	      0.28026197	     20.19823230	      0.00000000	      0.00000000	     -1.01516725	      7.04791625	    -17.55613284	    150.83230615	    -38.29480737	     47.76271554	    121.81152461	     13.74991538	    -39.30988675	     33.61248376	    128.35590215	    -14.38784963	     28.98624412	    117.59470210	     75.67129123	     -6.84830229	      5.40500709
      5.87755102	     -0.35950670	      0.25525711	     83.16448963	      0.45717085	      0.73969672	      0.98954456	     -4.05636290	      0.73136358	     17.60436482	      1.79829267	      0.03138613	     23.66993160	    -10.30432920	      0.00000000	     -5.24279579	     -1.38488411	    -21.46858168	      6.00491964	      0.10480562	     34.28462674	     14.61134356	      0.00000000	      0.12749915	      0.03976474	      3.49512308	      0.23677866	      0.05288711	      3.71356827	      0.20946835	      0.09668400	      3.71356827	      0.14571877	      0.09668400	      3.05823270	      0.11839571	      0.08108827	      2.83978750	      0.07285301	      0.06159559	      2.62134231	      0.91071365	      0.44982674	     19.43882605	      0.00000000	      0.00000000	     -1.45225534	      6.89613170	    -17.91965811	    149.79132492	    -38.26485935	     47.13444598	    122.03158455	     12.61677098	    -40.38887759	     33.46751705	    128.26819847	    -14.35256828	     28.95888813	    117.24231353	     78.02597086	     -6.62153120	      5.21843921
      5.89795918	     -0.25323893	      0.28910533	     83.91462934	      0.45617918	      0.73969323	      0.98934024	     -4.15238820	      0.88221164	     15.81005153	      1.87111945	      0.03265720	     24.15131992	     -8.78775698	      0.00000000	     -5.20241342	     -1.55341705	    -20.25530819	      5.99965002	      0.10471365	     34.26419004	     14.11732906	      0.00000000	      0.13993360	      0.04465549	      3.38305137	      0.25987069	      0.05939180	      3.59449208	      0.22989692	      0.10857535	      3.59449208	      0.15993011	      0.10857535	      2.96016995	      0.12994234	      0.09106147	      2.74872924	      0.07995806	      0.06917135	      2.53728852	      0.99953173	      0.50515179	     18.81551679	      0.00000000	      0.00000000	     -1.66780581	      6.82957494	    -18.94343570	    149.29258929	    -38.59834254	     46.90307414	    122.22349550	     13.75451243	    -39.66475786	     33.46610897	    128.43124244	    -14.14453160	     29.13447318	    116.74933806	     80.37654077	     -6.74715826	      4.48081673
      5.91836735	     -0.21226435	      0.29524945	     84.14771335	      0.45583574	      0.73947743	      0.98905337	     -4.33032129	      0.95810396	     17.11836941	      1.70338197	      0.02972962	     23.56149250	    -11.15189067	      0.00000000	     -5.20037841	     -1.65078096	    -20.43564013	      6.00436189	      0.10479588	     34.38427409	     14.71779511	      0.00000000	      0.14485461	      0.04909408	      3.39034181	      0.26900949	      0.06529513	      3.60223817	      0.23798163	      0.11936735	      3.60223817	      0.16555433	      0.11936735	      2.96654908	      0.13451199	      0.10011265	      2.75465272	      0.08276992	      0.07604673	      2.54275636	      1.03468197	      0.55536208	     18.85606404	      0.00000000	      0.00000000	     -1.65296973	      6.67983103	    -19.34590388	    149.43847575	    -38.88625623	     47.05890326	    122.18900038	     15.75355890	    -37.56609861	     33.46107809	    128.76689577	    -14.13385552	     29.36567289	    116.28510902	     81.58460030	     -6.73059181	      3.27608464
      5.93877551	      0.16231980	      0.32023693	     84.28517821	      0.45434952	      0.73901009	      0.98890061	     -4.47975006	      1.28259826	     17.36823833	      1.70959657	      0.02983809	     23.27559487	    -11.94081179	      0.00000000	     -5.26269385	     -1.95769004	    -19.75067737	      5.95188939	      0.10388007	     34.55294891	     14.14819315	      0.00000000	      0.12603187	      0.10438786	      3.51617147	      0.23405378	      0.13883585	      3.73593219	      0.20705776	      0.25380864	      3.73593219	      0.14404182	      0.25380864	      3.07665004	      0.11703319	      0.21286773	      2.85688932	      0.07201461	      0.16169680	      2.63712860	      0.90023303	      1.18085636	     19.55589088	      0.00000000	      0.00000000	     -1.08621452	      6.44453916	    -19.91926508	    150.67147146	    -38.73222701	     42.73023961	    119.01267687	     87.95069396	     19.61378426	     34.02525288	    128.92832539	    -13.80776246	     29.15453895	    115.92718833	     82.57943113	     -6.88782530	      2.04898795
